<svg xmlns="http://www.w3.org/2000/svg" viewBox="0 0 24 24" fill="none">
  <defs>
    <linearGradient id="conf-grad-1" x1="99.14%" y1="113.42%" x2="33.79%" y2="37.76%">
      <stop offset="0%" stop-color="#0052CC"/>
      <stop offset="92%" stop-color="#2684FF"/>
    </linearGradient>
    <linearGradient id="conf-grad-2" x1="0.86%" y1="-13.42%" x2="66.21%" y2="62.24%">
      <stop offset="0%" stop-color="#0052CC"/>
      <stop offset="92%" stop-color="#2684FF"/>
    </linearGradient>
  </defs>
  <path d="M3.24 16.97c-.2.33-.42.7-.6 1a.55.55 0 0 0 .21.75l4.47 2.73a.55.55 0 0 0 .75-.18c.16-.27.37-.62.6-1 1.7-2.84 3.42-2.5 6.53-1.13l4.45 1.95a.55.55 0 0 0 .73-.28l2.15-4.85a.55.55 0 0 0-.28-.72l-4.4-1.93c-5.86-2.57-10.85-2.2-13.61 3.66z" fill="url(#conf-grad-1)"/>
  <path d="M20.76 7.03c.2-.33.42-.7.6-1a.55.55 0 0 0-.21-.75l-4.47-2.73a.55.55 0 0 0-.75.18c-.16.27-.37.62-.6 1-1.7 2.84-3.42 2.5-6.53 1.13L4.35 2.91a.55.55 0 0 0-.73.28L1.47 8.04a.55.55 0 0 0 .28.72l4.4 1.93c5.86 2.57 10.85 2.2 13.61-3.66z" fill="url(#conf-grad-2)"/>
</svg>
