<svg xmlns="http://www.w3.org/2000/svg" viewBox="0 0 24 24" fill="none">
  <rect x="1" y="1" width="22" height="22" rx="4" fill="#632CA6"/>
  <path d="M15.2 7.4c-.5-.4-1.1-.5-1.6-.3-.3.1-.5.3-.7.5l-1.2-.8c.1-.3.1-.7-.1-1-.3-.4-.8-.6-1.2-.4-.5.2-.7.7-.5 1.2.1.2.3.4.5.5l-.5 1.4c-.4 0-.8.1-1.1.4-.8.6-1 1.6-.6 2.5l-1 .8c-.3-.2-.7-.2-1 0-.4.3-.5.8-.2 1.2.3.4.8.5 1.2.2.2-.1.3-.3.3-.5l1.1-.8c.5.4 1.1.5 1.7.3.2-.1.4-.2.6-.4l1.9 1.3c-.1.3 0 .6.2.9.3.4.8.5 1.2.2.4-.3.5-.8.2-1.2-.2-.3-.5-.4-.8-.4l-1.8-1.3c.3-.6.3-1.3-.1-1.9l1-1.3c.2.1.4.1.6.1.5-.1.9-.5.9-1 0-.5-.3-.9-.8-1z" fill="white"/>
  <circle cx="12" cy="12" r="1.5" fill="white" opacity="0.3"/>
</svg>
