<svg width="1280" height="320" viewBox="0 0 1280 320" xmlns="http://www.w3.org/2000/svg">
  <rect width="1280" height="320" fill="#5B4FC4"/>

  <g opacity="0.06">
    <circle cx="50" cy="50" r="2" fill="#fff"/><circle cx="130" cy="30" r="2" fill="#fff"/>
    <circle cx="200" cy="70" r="2" fill="#fff"/><circle cx="80" cy="120" r="2" fill="#fff"/>
    <circle cx="170" cy="150" r="2" fill="#fff"/><circle cx="40" cy="200" r="2" fill="#fff"/>
    <circle cx="150" cy="250" r="2" fill="#fff"/><circle cx="100" cy="280" r="2" fill="#fff"/>
    <circle cx="1100" cy="40" r="2" fill="#fff"/><circle cx="1180" cy="80" r="2" fill="#fff"/>
    <circle cx="1050" cy="120" r="2" fill="#fff"/><circle cx="1200" cy="160" r="2" fill="#fff"/>
    <circle cx="1130" cy="220" r="2" fill="#fff"/><circle cx="1230" cy="260" r="2" fill="#fff"/>
  </g>

  <g opacity="0.15">
    <text font-family="sans-serif" font-size="28" font-weight="600" fill="#fff" x="60" y="100">?</text>
    <text font-family="sans-serif" font-size="20" font-weight="600" fill="#fff" x="110" y="80">?</text>
    <text font-family="sans-serif" font-size="35" font-weight="600" fill="#fff" x="30" y="180">?</text>
    <text font-family="sans-serif" font-size="18" font-weight="600" fill="#fff" x="140" y="200">?</text>
    <text font-family="sans-serif" font-size="24" font-weight="600" fill="#fff" x="80" y="250">?</text>
    <rect x="50" y="130" width="20" height="5" rx="2.5" fill="#fff" transform="rotate(15 60 132)"/>
    <rect x="120" y="160" width="16" height="5" rx="2.5" fill="#fff" transform="rotate(-25 128 162)"/>
  </g>

  <g opacity="0.15">
    <text font-family="sans-serif" font-size="24" font-weight="600" fill="#fff" x="1140" y="90">?</text>
    <text font-family="sans-serif" font-size="30" font-weight="600" fill="#fff" x="1190" y="140">?</text>
    <text font-family="sans-serif" font-size="18" font-weight="600" fill="#fff" x="1100" y="200">?</text>
    <text font-family="sans-serif" font-size="26" font-weight="600" fill="#fff" x="1210" y="240">?</text>
    <rect x="1120" y="120" width="18" height="5" rx="2.5" fill="#fff" transform="rotate(-20 1129 122)"/>
    <rect x="1180" y="180" width="22" height="5" rx="2.5" fill="#fff" transform="rotate(30 1191 182)"/>
  </g>

  <!-- Compass icon -->
  <g transform="translate(440, 70)">
    <rect x="0" y="0" width="180" height="180" rx="36" fill="#4A3FB5"/>
    <circle cx="90" cy="90" r="68" fill="none" stroke="#fff" stroke-width="1.5" opacity="0.15"/>
    <g opacity="0.35">
      <line x1="90" y1="22" x2="90" y2="32" stroke="#fff" stroke-width="2.5" stroke-linecap="round"/>
      <line x1="90" y1="148" x2="90" y2="158" stroke="#fff" stroke-width="2.5" stroke-linecap="round"/>
      <line x1="22" y1="90" x2="32" y2="90" stroke="#fff" stroke-width="2.5" stroke-linecap="round"/>
      <line x1="148" y1="90" x2="158" y2="90" stroke="#fff" stroke-width="2.5" stroke-linecap="round"/>
    </g>
    <path d="M90 90 L142 38" fill="none" stroke="#5DCAA5" stroke-width="3.5" stroke-linecap="round" opacity="0.85"/>
    <g transform="translate(90,90) rotate(-45)">
      <polygon points="0,-48 6,-6 0,-12 -6,-6" fill="#fff"/>
      <polygon points="0,48 6,6 0,12 -6,6" fill="#fff" opacity="0.2"/>
    </g>
    <circle cx="90" cy="90" r="8" fill="#4A3FB5" stroke="#fff" stroke-width="2.5"/>
    <circle cx="90" cy="90" r="4" fill="#5DCAA5"/>
    <circle cx="90" cy="90" r="2" fill="#fff"/>
    <circle cx="144" cy="36" r="5" fill="#5DCAA5"/>
    <circle cx="144" cy="36" r="2.5" fill="#fff"/>
  </g>

  <!-- Wordmark -->
  <text x="660" y="150" font-family="system-ui, -apple-system, 'Segoe UI', sans-serif" font-size="56" font-weight="700" fill="#fff">Clear<tspan fill="#C4BFFF">Path</tspan><tspan fill="#5DCAA5">AI</tspan></text>

  <!-- Tagline -->
  <text x="660" y="190" font-family="system-ui, -apple-system, 'Segoe UI', sans-serif" font-size="18" font-weight="400" fill="#fff" opacity="0.7" letter-spacing="2">No code. No confusion. Just go.</text>

  <line x1="660" y1="210" x2="880" y2="210" stroke="#fff" stroke-width="0.5" opacity="0.2"/>

  <text x="660" y="240" font-family="system-ui, -apple-system, 'Segoe UI', sans-serif" font-size="14" font-weight="400" fill="#fff" opacity="0.45">Remove technical barriers so every team member</text>
  <text x="660" y="260" font-family="system-ui, -apple-system, 'Segoe UI', sans-serif" font-size="14" font-weight="400" fill="#fff" opacity="0.45">can execute with confidence.</text>
</svg>
