<svg width="512" height="512" viewBox="0 0 512 512" xmlns="http://www.w3.org/2000/svg">
  <rect width="512" height="512" rx="96" fill="#5B4FC4"/>

  <circle cx="256" cy="256" r="180" fill="none" stroke="#fff" stroke-width="2" opacity="0.1"/>
  <circle cx="256" cy="256" r="150" fill="none" stroke="#fff" stroke-width="3" opacity="0.15"/>
  <circle cx="256" cy="256" r="120" fill="none" stroke="#fff" stroke-width="2" opacity="0.1"/>

  <!-- Cardinal ticks -->
  <g opacity="0.4">
    <line x1="256" y1="72" x2="256" y2="100" stroke="#fff" stroke-width="5" stroke-linecap="round"/>
    <line x1="256" y1="412" x2="256" y2="440" stroke="#fff" stroke-width="5" stroke-linecap="round"/>
    <line x1="72" y1="256" x2="100" y2="256" stroke="#fff" stroke-width="5" stroke-linecap="round"/>
    <line x1="412" y1="256" x2="440" y2="256" stroke="#fff" stroke-width="5" stroke-linecap="round"/>
  </g>

  <!-- Intercardinal ticks -->
  <g opacity="0.22">
    <line x1="126" y1="126" x2="144" y2="144" stroke="#fff" stroke-width="4" stroke-linecap="round"/>
    <line x1="368" y1="368" x2="386" y2="386" stroke="#fff" stroke-width="4" stroke-linecap="round"/>
    <line x1="386" y1="126" x2="368" y2="144" stroke="#fff" stroke-width="4" stroke-linecap="round"/>
    <line x1="144" y1="368" x2="126" y2="386" stroke="#fff" stroke-width="4" stroke-linecap="round"/>
  </g>

  <!-- Debris bottom-left -->
  <g opacity="0.3">
    <rect x="110" y="320" width="30" height="8" rx="4" fill="#fff" transform="rotate(15 125 324)"/>
    <rect x="90" y="290" width="22" height="8" rx="4" fill="#fff" transform="rotate(-20 101 294)"/>
    <rect x="140" y="360" width="28" height="7" rx="3.5" fill="#fff" transform="rotate(35 154 363)"/>
    <rect x="100" y="270" width="18" height="7" rx="3.5" fill="#fff" transform="rotate(-10 109 273)"/>
    <rect x="130" y="310" width="22" height="7" rx="3.5" fill="#fff" transform="rotate(50 141 313)"/>
    <rect x="160" y="345" width="24" height="7" rx="3.5" fill="#fff" transform="rotate(-30 172 348)"/>
    <circle cx="115" cy="340" r="5.5" fill="#fff"/>
    <circle cx="145" cy="280" r="5" fill="#fff"/>
    <circle cx="90" cy="320" r="4" fill="#fff"/>
    <circle cx="160" cy="335" r="5" fill="#fff"/>
    <circle cx="125" cy="375" r="4" fill="#fff"/>
    <circle cx="175" cy="358" r="3.5" fill="#fff"/>
  </g>

  <!-- Question marks top-left -->
  <g opacity="0.28">
    <text font-family="sans-serif" font-size="28" font-weight="600" fill="#fff" x="95" y="130">?</text>
    <text font-family="sans-serif" font-size="20" font-weight="600" fill="#fff" x="140" y="100">?</text>
    <text font-family="sans-serif" font-size="34" font-weight="600" fill="#fff" x="170" y="155">?</text>
    <text font-family="sans-serif" font-size="18" font-weight="600" fill="#fff" x="110" y="170">?</text>
    <text font-family="sans-serif" font-size="24" font-weight="600" fill="#fff" x="70" y="160">?</text>
    <text font-family="sans-serif" font-size="30" font-weight="600" fill="#fff" x="80" y="200">?</text>
  </g>

  <!-- Question marks bottom-right -->
  <g opacity="0.28">
    <text font-family="sans-serif" font-size="24" font-weight="600" fill="#fff" x="350" y="320">?</text>
    <text font-family="sans-serif" font-size="34" font-weight="600" fill="#fff" x="380" y="355">?</text>
    <text font-family="sans-serif" font-size="20" font-weight="600" fill="#fff" x="410" y="310">?</text>
    <text font-family="sans-serif" font-size="28" font-weight="600" fill="#fff" x="360" y="390">?</text>
    <text font-family="sans-serif" font-size="18" font-weight="600" fill="#fff" x="420" y="375">?</text>
    <text font-family="sans-serif" font-size="30" font-weight="600" fill="#fff" x="395" y="410">?</text>
  </g>

  <!-- Neural network top-right -->
  <g opacity="0.35">
    <circle cx="340" cy="175" r="7" fill="#85B7EB"/>
    <circle cx="375" cy="150" r="7" fill="#85B7EB"/>
    <circle cx="400" cy="180" r="7" fill="#85B7EB"/>
    <circle cx="360" cy="210" r="7" fill="#85B7EB"/>
    <circle cx="410" cy="160" r="7" fill="#85B7EB"/>
    <circle cx="385" cy="210" r="7" fill="#85B7EB"/>
    <circle cx="430" cy="180" r="7" fill="#85B7EB"/>
    <circle cx="355" cy="130" r="7" fill="#85B7EB"/>
    <circle cx="415" cy="130" r="7" fill="#85B7EB"/>
    <circle cx="330" cy="150" r="7" fill="#85B7EB"/>
    <line x1="340" y1="175" x2="375" y2="150" stroke="#85B7EB" stroke-width="1.5"/>
    <line x1="375" y1="150" x2="400" y2="180" stroke="#85B7EB" stroke-width="1.5"/>
    <line x1="375" y1="150" x2="410" y2="160" stroke="#85B7EB" stroke-width="1.5"/>
    <line x1="400" y1="180" x2="385" y2="210" stroke="#85B7EB" stroke-width="1.5"/>
    <line x1="360" y1="210" x2="385" y2="210" stroke="#85B7EB" stroke-width="1.5"/>
    <line x1="340" y1="175" x2="360" y2="210" stroke="#85B7EB" stroke-width="1.5"/>
    <line x1="410" y1="160" x2="430" y2="180" stroke="#85B7EB" stroke-width="1.5"/>
    <line x1="355" y1="130" x2="375" y2="150" stroke="#85B7EB" stroke-width="1.5"/>
    <line x1="355" y1="130" x2="415" y2="130" stroke="#85B7EB" stroke-width="1.5"/>
    <line x1="415" y1="130" x2="410" y2="160" stroke="#85B7EB" stroke-width="1.5"/>
    <line x1="330" y1="150" x2="340" y2="175" stroke="#85B7EB" stroke-width="1.5"/>
    <line x1="330" y1="150" x2="355" y2="130" stroke="#85B7EB" stroke-width="1.5"/>
    <line x1="400" y1="180" x2="430" y2="180" stroke="#85B7EB" stroke-width="1.5"/>
  </g>

  <!-- Clear path line -->
  <path d="M256 256 L400 112" fill="none" stroke="#5DCAA5" stroke-width="8" stroke-linecap="round" opacity="0.85"/>

  <!-- Needle -->
  <g transform="translate(256,256) rotate(-45)">
    <polygon points="0,-120 16,-16 0,-32 -16,-16" fill="#fff"/>
    <polygon points="0,120 16,16 0,32 -16,16" fill="#fff" opacity="0.2"/>
  </g>

  <!-- Hub -->
  <circle cx="256" cy="256" r="22" fill="#5B4FC4" stroke="#fff" stroke-width="5"/>
  <circle cx="256" cy="256" r="11" fill="#5DCAA5"/>
  <circle cx="256" cy="256" r="5.5" fill="#fff"/>

  <!-- Destination beacon -->
  <circle cx="400" cy="110" r="22" fill="#1D9E75" opacity="0.2"/>
  <circle cx="400" cy="110" r="12" fill="#5DCAA5"/>
  <circle cx="400" cy="110" r="6" fill="#fff"/>
  <line x1="400" y1="86" x2="400" y2="94" stroke="#5DCAA5" stroke-width="3.5" stroke-linecap="round"/>
  <line x1="400" y1="126" x2="400" y2="134" stroke="#5DCAA5" stroke-width="3.5" stroke-linecap="round"/>
  <line x1="376" y1="110" x2="384" y2="110" stroke="#5DCAA5" stroke-width="3.5" stroke-linecap="round"/>
  <line x1="416" y1="110" x2="424" y2="110" stroke="#5DCAA5" stroke-width="3.5" stroke-linecap="round"/>
</svg>
