<svg width="100%" viewBox="0 0 680 580" xmlns="http://www.w3.org/2000/svg">

<rect x="90" y="10" width="500" height="500" rx="64" fill="#5B4FC4"/>

<circle cx="340" cy="260" r="200" fill="none" stroke="#fff" stroke-width="1.5" opacity="0.1"/>
<circle cx="340" cy="260" r="170" fill="none" stroke="#fff" stroke-width="2" opacity="0.15"/>
<circle cx="340" cy="260" r="140" fill="none" stroke="#fff" stroke-width="1" opacity="0.1"/>

<g opacity="0.4">
<line x1="340" y1="58" x2="340" y2="82" stroke="#fff" stroke-width="3" stroke-linecap="round"/>
<line x1="340" y1="438" x2="340" y2="462" stroke="#fff" stroke-width="3" stroke-linecap="round"/>
<line x1="138" y1="260" x2="162" y2="260" stroke="#fff" stroke-width="3" stroke-linecap="round"/>
<line x1="518" y1="260" x2="542" y2="260" stroke="#fff" stroke-width="3" stroke-linecap="round"/>
</g>

<g opacity="0.22">
<line x1="198" y1="118" x2="214" y2="134" stroke="#fff" stroke-width="2.5" stroke-linecap="round"/>
<line x1="466" y1="386" x2="482" y2="402" stroke="#fff" stroke-width="2.5" stroke-linecap="round"/>
<line x1="482" y1="118" x2="466" y2="134" stroke="#fff" stroke-width="2.5" stroke-linecap="round"/>
<line x1="214" y1="386" x2="198" y2="402" stroke="#fff" stroke-width="2.5" stroke-linecap="round"/>
</g>

<text font-family="sans-serif" font-size="16" font-weight="500" fill="#fff" opacity="0.4" text-anchor="middle" x="340" y="52">N</text>
<text font-family="sans-serif" font-size="16" font-weight="500" fill="#fff" opacity="0.4" text-anchor="middle" x="340" y="478">S</text>
<text font-family="sans-serif" font-size="16" font-weight="500" fill="#fff" opacity="0.4" text-anchor="middle" x="128" y="266">W</text>
<text font-family="sans-serif" font-size="16" font-weight="500" fill="#fff" opacity="0.4" text-anchor="middle" x="552" y="266">E</text>

<g opacity="0.06">
<line x1="200" y1="260" x2="480" y2="260" stroke="#fff" stroke-width="0.8"/>
<line x1="340" y1="120" x2="340" y2="400" stroke="#fff" stroke-width="0.8"/>
</g>

<g opacity="0.3">
<rect x="185" y="340" width="22" height="6" rx="3" fill="#fff" transform="rotate(15 196 343)"/>
<rect x="160" y="310" width="16" height="6" rx="3" fill="#fff" transform="rotate(-20 168 313)"/>
<rect x="210" y="375" width="20" height="5" rx="2.5" fill="#fff" transform="rotate(35 220 377)"/>
<rect x="170" y="280" width="14" height="5" rx="2.5" fill="#fff" transform="rotate(-10 177 282)"/>
<rect x="200" y="320" width="16" height="5" rx="2.5" fill="#fff" transform="rotate(50 208 322)"/>
<rect x="230" y="360" width="18" height="5" rx="2.5" fill="#fff" transform="rotate(-30 239 362)"/>
<rect x="150" y="350" width="12" height="5" rx="2.5" fill="#fff" transform="rotate(25 156 352)"/>
<rect x="240" y="390" width="15" height="5" rx="2.5" fill="#fff" transform="rotate(-15 247 392)"/>
<circle cx="180" cy="355" r="4" fill="#fff"/>
<circle cx="215" cy="295" r="3.5" fill="#fff"/>
<circle cx="155" cy="335" r="3" fill="#fff"/>
<circle cx="230" cy="350" r="3.5" fill="#fff"/>
<circle cx="195" cy="395" r="3" fill="#fff"/>
<circle cx="250" cy="370" r="2.5" fill="#fff"/>
<circle cx="165" cy="375" r="2" fill="#fff"/>
<circle cx="240" cy="305" r="2.5" fill="#fff"/>
</g>
<g opacity="0.1">
<rect x="260" y="340" width="14" height="4" rx="2" fill="#fff" transform="rotate(-25 267 342)"/>
<rect x="255" y="310" width="12" height="4" rx="2" fill="#fff" transform="rotate(40 261 312)"/>
<rect x="275" y="365" width="10" height="4" rx="2" fill="#fff" transform="rotate(10 280 367)"/>
<circle cx="270" cy="330" r="2.5" fill="#fff"/>
<circle cx="285" cy="355" r="2" fill="#fff"/>
</g>

<path d="M220 395 C225 370, 235 360, 250 345 C265 330, 255 315, 268 300 C280 285, 275 275, 295 265" fill="none" stroke="#fff" stroke-width="2" stroke-dasharray="5 5" opacity="0.15" stroke-linecap="round"/>

<g opacity="0.28">
<text font-family="sans-serif" font-size="18" font-weight="500" fill="#fff" x="155" y="105">?</text>
<text font-family="sans-serif" font-size="14" font-weight="500" fill="#fff" x="200" y="80">?</text>
<text font-family="sans-serif" font-size="22" font-weight="500" fill="#fff" x="240" y="130">?</text>
<text font-family="sans-serif" font-size="12" font-weight="500" fill="#fff" x="175" y="155">?</text>
<text font-family="sans-serif" font-size="16" font-weight="500" fill="#fff" x="130" y="135">?</text>
<text font-family="sans-serif" font-size="14" font-weight="500" fill="#fff" x="265" y="85">?</text>
<text font-family="sans-serif" font-size="11" font-weight="500" fill="#fff" x="218" y="155">?</text>
<text font-family="sans-serif" font-size="20" font-weight="500" fill="#fff" x="148" y="185">?</text>
</g>
<g opacity="0.22">
<path d="M170 100 C175 85, 195 90, 195 80" fill="none" stroke="#fff" stroke-width="1.2" stroke-linecap="round"/>
<path d="M225 105 C230 95, 248 100, 250 88" fill="none" stroke="#fff" stroke-width="1" stroke-linecap="round"/>
<path d="M140 150 C150 140, 160 148, 170 135" fill="none" stroke="#fff" stroke-width="1" stroke-linecap="round"/>
</g>

<g opacity="0.28">
<text font-family="sans-serif" font-size="16" font-weight="500" fill="#fff" x="430" y="320">?</text>
<text font-family="sans-serif" font-size="22" font-weight="500" fill="#fff" x="470" y="350">?</text>
<text font-family="sans-serif" font-size="13" font-weight="500" fill="#fff" x="500" y="310">?</text>
<text font-family="sans-serif" font-size="18" font-weight="500" fill="#fff" x="450" y="390">?</text>
<text font-family="sans-serif" font-size="14" font-weight="500" fill="#fff" x="510" y="370">?</text>
<text font-family="sans-serif" font-size="20" font-weight="500" fill="#fff" x="485" y="405">?</text>
</g>

<g opacity="0.35">
<circle cx="400" cy="195" r="5" fill="#85B7EB"/>
<circle cx="435" cy="165" r="5" fill="#85B7EB"/>
<circle cx="460" cy="200" r="5" fill="#85B7EB"/>
<circle cx="420" cy="230" r="5" fill="#85B7EB"/>
<circle cx="470" cy="175" r="5" fill="#85B7EB"/>
<circle cx="445" cy="225" r="5" fill="#85B7EB"/>
<circle cx="490" cy="195" r="5" fill="#85B7EB"/>
<circle cx="415" cy="150" r="5" fill="#85B7EB"/>
<circle cx="475" cy="145" r="5" fill="#85B7EB"/>
<circle cx="500" cy="165" r="5" fill="#85B7EB"/>
<circle cx="385" cy="170" r="5" fill="#85B7EB"/>
<line x1="400" y1="195" x2="435" y2="165" stroke="#85B7EB" stroke-width="1"/>
<line x1="435" y1="165" x2="460" y2="200" stroke="#85B7EB" stroke-width="1"/>
<line x1="435" y1="165" x2="470" y2="175" stroke="#85B7EB" stroke-width="1"/>
<line x1="460" y1="200" x2="445" y2="225" stroke="#85B7EB" stroke-width="1"/>
<line x1="420" y1="230" x2="445" y2="225" stroke="#85B7EB" stroke-width="1"/>
<line x1="400" y1="195" x2="420" y2="230" stroke="#85B7EB" stroke-width="1"/>
<line x1="470" y1="175" x2="490" y2="195" stroke="#85B7EB" stroke-width="1"/>
<line x1="415" y1="150" x2="435" y2="165" stroke="#85B7EB" stroke-width="1"/>
<line x1="415" y1="150" x2="475" y2="145" stroke="#85B7EB" stroke-width="1"/>
<line x1="475" y1="145" x2="470" y2="175" stroke="#85B7EB" stroke-width="1"/>
<line x1="475" y1="145" x2="500" y2="165" stroke="#85B7EB" stroke-width="1"/>
<line x1="500" y1="165" x2="490" y2="195" stroke="#85B7EB" stroke-width="1"/>
<line x1="385" y1="170" x2="400" y2="195" stroke="#85B7EB" stroke-width="1"/>
<line x1="385" y1="170" x2="415" y2="150" stroke="#85B7EB" stroke-width="1"/>
</g>

<path d="M340 260 L478 122" fill="none" stroke="#5DCAA5" stroke-width="5" stroke-linecap="round" opacity="0.85"/>

<g transform="translate(340,260) rotate(-45)">
<polygon points="0,-130 18,-18 0,-36 -18,-18" fill="#fff"/>
<polygon points="0,130 18,18 0,36 -18,18" fill="#fff" opacity="0.2"/>
</g>

<circle cx="340" cy="260" r="18" fill="#5B4FC4" stroke="#fff" stroke-width="3.5"/>
<circle cx="340" cy="260" r="9" fill="#5DCAA5"/>
<circle cx="340" cy="260" r="4.5" fill="#fff"/>

<circle cx="480" cy="120" r="18" fill="#1D9E75" opacity="0.2"/>
<circle cx="480" cy="120" r="10" fill="#5DCAA5"/>
<circle cx="480" cy="120" r="5" fill="#fff"/>
<line x1="480" y1="96" x2="480" y2="106" stroke="#5DCAA5" stroke-width="2.5" stroke-linecap="round"/>
<line x1="480" y1="134" x2="480" y2="144" stroke="#5DCAA5" stroke-width="2.5" stroke-linecap="round"/>
<line x1="456" y1="120" x2="466" y2="120" stroke="#5DCAA5" stroke-width="2.5" stroke-linecap="round"/>
<line x1="494" y1="120" x2="504" y2="120" stroke="#5DCAA5" stroke-width="2.5" stroke-linecap="round"/>

<text x="340" y="562" text-anchor="middle" font-family="sans-serif" font-size="38" font-weight="500" fill="#1a1a1a">Clear<tspan fill="#7F77DD">Path</tspan><tspan fill="#1D9E75">AI</tspan></text>

</svg>
