<svg width="240" height="50" viewBox="0 0 240 50" xmlns="http://www.w3.org/2000/svg">
  <!-- Compact compass icon -->
  <rect x="2" y="5" width="30" height="30" rx="7" fill="#5B4FC4"/>
  <circle cx="17" cy="20" r="10" fill="none" stroke="#fff" stroke-width="0.8" opacity="0.15"/>
  <g opacity="0.3">
    <line x1="17" y1="10" x2="17" y2="12" stroke="#fff" stroke-width="1" stroke-linecap="round"/>
    <line x1="17" y1="28" x2="17" y2="30" stroke="#fff" stroke-width="1" stroke-linecap="round"/>
    <line x1="7" y1="20" x2="9" y2="20" stroke="#fff" stroke-width="1" stroke-linecap="round"/>
    <line x1="25" y1="20" x2="27" y2="20" stroke="#fff" stroke-width="1" stroke-linecap="round"/>
  </g>
  <path d="M17 20 L25 12" fill="none" stroke="#5DCAA5" stroke-width="1.2" stroke-linecap="round" opacity="0.8"/>
  <g transform="translate(17,20) rotate(-45)">
    <polygon points="0,-9 2,-1.5 0,-3 -2,-1.5" fill="#fff"/>
    <polygon points="0,9 2,1.5 0,3 -2,1.5" fill="#fff" opacity="0.2"/>
  </g>
  <circle cx="17" cy="20" r="2.5" fill="#5B4FC4" stroke="#fff" stroke-width="1.2"/>
  <circle cx="17" cy="20" r="1.2" fill="#5DCAA5"/>
  <circle cx="25.5" cy="11.5" r="1.5" fill="#5DCAA5"/>

  <!-- Wordmark -->
  <text x="40" y="24" font-family="system-ui, -apple-system, 'Segoe UI', sans-serif" font-size="18" font-weight="600" fill="#1a1a1a">Clear<tspan fill="#7F77DD">Path</tspan><tspan fill="#1D9E75">AI</tspan></text>
  <!-- Motto -->
  <text x="40" y="40" font-family="system-ui, -apple-system, 'Segoe UI', sans-serif" font-size="9" font-weight="400" fill="#888" letter-spacing="1.2">No code. No confusion. Just go.</text>
</svg>
